<svg width="20" height="20" viewBox="0 0 20 20" fill="none" xmlns="http://www.w3.org/2000/svg">
<path d="M12.2324 9.99989L19.0407 3.20739C19.3389 2.90924 19.5064 2.50486 19.5064 2.08322C19.5064 1.66158 19.3389 1.2572 19.0407 0.959053C18.7426 0.660906 18.3382 0.493408 17.9166 0.493408C17.4949 0.493408 17.0906 0.660906 16.7924 0.959053L9.9999 7.76739L3.2074 0.959053C2.90926 0.660906 2.50488 0.493408 2.08324 0.493408C1.66159 0.493408 1.25722 0.660906 0.95907 0.959053C0.660922 1.2572 0.493425 1.66158 0.493425 2.08322C0.493425 2.50486 0.660922 2.90924 0.95907 3.20739L7.7674 9.99989L0.95907 16.7924C0.810667 16.9396 0.692876 17.1147 0.612492 17.3076C0.532109 17.5006 0.490723 17.7075 0.490723 17.9166C0.490723 18.1256 0.532109 18.3325 0.612492 18.5255C0.692876 18.7184 0.810667 18.8935 0.95907 19.0407C1.10626 19.1891 1.28138 19.3069 1.47432 19.3873C1.66727 19.4677 1.87422 19.5091 2.08324 19.5091C2.29226 19.5091 2.49921 19.4677 2.69215 19.3873C2.88509 19.3069 3.06021 19.1891 3.2074 19.0407L9.9999 12.2324L16.7924 19.0407C16.9396 19.1891 17.1147 19.3069 17.3077 19.3873C17.5006 19.4677 17.7076 19.5091 17.9166 19.5091C18.1256 19.5091 18.3325 19.4677 18.5255 19.3873C18.7184 19.3069 18.8935 19.1891 19.0407 19.0407C19.1891 18.8935 19.3069 18.7184 19.3873 18.5255C19.4677 18.3325 19.5091 18.1256 19.5091 17.9166C19.5091 17.7075 19.4677 17.5006 19.3873 17.3076C19.3069 17.1147 19.1891 16.9396 19.0407 16.7924L12.2324 9.99989Z" fill="#495057"/>
</svg>
